<?xml version="1.0" encoding="UTF-8" standalone="no"?>
<!-- Created with Inkscape (http://www.inkscape.org/) -->

<svg
   version="1.1"
   id="svg93"
   xml:space="preserve"
   width="682.66669"
   height="682.66669"
   viewBox="0 0 682.66669 682.66669"
   xmlns="http://www.w3.org/2000/svg"
   xmlns:svg="http://www.w3.org/2000/svg"><defs
     id="defs97"><clipPath
       clipPathUnits="userSpaceOnUse"
       id="clipPath107"><path
         d="M 0,512 H 512 V 0 H 0 Z"
         id="path105" /></clipPath></defs><g
     id="g99"
     transform="matrix(1.3333333,0,0,-1.3333333,0,682.66667)"><g
       id="g101"><g
         id="g103"
         clip-path="url(#clipPath107)"><g
           id="g109"
           transform="translate(378.5,311)"><path
             d="m 0,0 h -245 v 0 c 67.655,0 122.5,-54.845 122.5,-122.5 l -20,-147.5 h 250 c 8.284,0 15,6.716 15,15 v 132.5 C 122.5,-54.845 67.655,0 0,0"
             style="fill:#aadc1e;fill-opacity:1;fill-rule:nonzero;stroke:none"
             id="path111" /></g><g
           id="g113"
           transform="translate(501,188.5)"><path
             d="m 0,0 c 0,67.655 -54.845,122.5 -122.5,122.5 v -270 H -15 c 8.284,0 15,6.716 15,15 z"
             style="fill:#8cc314;fill-opacity:1;fill-rule:nonzero;stroke:none"
             id="path115" /></g><g
           id="g117"
           transform="translate(11,188.5)"><path
             d="m 0,0 v -132.5 c 0,-8.284 6.716,-15 15,-15 H 245 V 0 C 245,67.655 190.155,122.5 122.5,122.5 54.845,122.5 0,67.655 0,0"
             style="fill:#49acff;fill-opacity:1;fill-rule:nonzero;stroke:none"
             id="path119" /></g><g
           id="g121"
           transform="translate(431,151)"><path
             d="m 0,0 c -8.284,0 -15,-6.716 -15,-15 v -95 h 30 v 95 C 15,-6.716 8.284,0 0,0"
             style="fill:#64a000;fill-opacity:1;fill-rule:nonzero;stroke:none"
             id="path123" /></g><g
           id="g125"
           transform="translate(66,41)"><path
             d="m 0,0 v 95 c 0,8.284 6.716,15 15,15 8.284,0 15,-6.716 15,-15 V 0"
             style="fill:#1790e7;fill-opacity:1;fill-rule:nonzero;stroke:none"
             id="path127" /></g><g
           id="g129"
           transform="translate(32.5,196)"><path
             d="m 0,0 h -17.5 c -8.284,0 -15,6.716 -15,15 V 52.5 C -32.5,70.42 -17.92,85 0,85 23.435,85 42.5,65.935 42.5,42.5 42.5,19.065 23.435,0 0,0"
             style="fill:#ffd5b6;fill-opacity:1;fill-rule:nonzero;stroke:none"
             id="path131" /></g><g
           id="g133"
           transform="translate(437,238.5)"><path
             d="M 0,0 C 0,23.435 19.065,42.5 42.5,42.5 60.42,42.5 75,27.92 75,10 v -37.5 c 0,-8.284 -6.716,-15 -15,-15 H 42.5 C 19.065,-42.5 0,-23.435 0,0"
             style="fill:#ffc896;fill-opacity:1;fill-rule:nonzero;stroke:none"
             id="path135" /></g><g
           id="g137"
           transform="translate(256,188.5)"><path
             d="m 0,0 c 0,67.655 -54.845,122.5 -122.5,122.5 v -270 H 0 Z"
             style="fill:#1790e7;fill-opacity:1;fill-rule:nonzero;stroke:none"
             id="path139" /></g><g
           id="g141"
           transform="translate(133.5,281)"><path
             d="m 0,0 c -52.383,0 -95,42.617 -95,95 0,52.383 42.617,95 95,95 52.383,0 95,-42.617 95,-95 C 95,42.617 52.383,0 0,0"
             style="fill:#ffd5b6;fill-opacity:1;fill-rule:nonzero;stroke:none"
             id="path143" /></g><g
           id="g145"
           transform="translate(133.5,471)"><path
             d="m 0,0 v -190 c 52.383,0 95,42.617 95,95 C 95,-42.617 52.383,0 0,0"
             style="fill:#ffc896;fill-opacity:1;fill-rule:nonzero;stroke:none"
             id="path147" /></g><g
           id="g149"
           transform="translate(378.5,281)"><path
             d="m 0,0 c -52.383,0 -95,42.617 -95,95 0,52.383 42.617,95 95,95 52.383,0 95,-42.617 95,-95 C 95,42.617 52.383,0 0,0"
             style="fill:#ffd5b6;fill-opacity:1;fill-rule:nonzero;stroke:none"
             id="path151" /></g><g
           id="g153"
           transform="translate(378.5,471)"><path
             d="m 0,0 v -190 c 52.383,0 95,42.617 95,95 C 95,-42.617 52.383,0 0,0"
             style="fill:#ffc896;fill-opacity:1;fill-rule:nonzero;stroke:none"
             id="path155" /></g></g></g></g></svg>
